<mxfile host="app.diagrams.net" agent="Mozilla/5.0 (Windows NT 10.0; Win64; x64) AppleWebKit/537.36 (KHTML, like Gecko) Chrome/129.0.0.0 Safari/537.36" version="24.8.1">
  <diagram name="Page-1" id="2a216829-ef6e-dabb-86c1-c78162f3ba2b">
    <mxGraphModel dx="1059" dy="1695" grid="1" gridSize="10" guides="1" tooltips="1" connect="1" arrows="1" fold="1" page="1" pageScale="1" pageWidth="850" pageHeight="1100" background="none" math="0" shadow="0">
      <root>
        <mxCell id="0" />
        <mxCell id="1" parent="0" />
        <mxCell id="AeBUD6cjxd1LtfXHsOYv-1" value="Validation System" style="swimlane;startSize=20;horizontal=0;html=1;whiteSpace=wrap;fontSize=7;" vertex="1" parent="1">
          <mxGeometry x="140" y="50" width="650" height="180" as="geometry" />
        </mxCell>
        <mxCell id="AeBUD6cjxd1LtfXHsOYv-25" value="&lt;font style=&quot;font-size: 7px;&quot;&gt;Check Item Authenticity&lt;/font&gt;" style="points=[[0.25,0,0],[0.5,0,0],[0.75,0,0],[1,0.25,0],[1,0.5,0],[1,0.75,0],[0.75,1,0],[0.5,1,0],[0.25,1,0],[0,0.75,0],[0,0.5,0],[0,0.25,0]];shape=mxgraph.bpmn.task;whiteSpace=wrap;rectStyle=rounded;size=10;html=1;container=1;expand=0;collapsible=0;taskMarker=abstract;" vertex="1" parent="AeBUD6cjxd1LtfXHsOYv-1">
          <mxGeometry x="160" y="70" width="70" height="60" as="geometry" />
        </mxCell>
        <mxCell id="AeBUD6cjxd1LtfXHsOYv-35" value="&#xa;Item Data Approved?&#xa;&#xa;" style="html=1;whiteSpace=wrap;aspect=fixed;shape=isoRectangle;fontSize=7;" vertex="1" parent="AeBUD6cjxd1LtfXHsOYv-1">
          <mxGeometry x="280.83" y="70" width="88.34" height="53" as="geometry" />
        </mxCell>
        <mxCell id="AeBUD6cjxd1LtfXHsOYv-36" style="edgeStyle=orthogonalEdgeStyle;rounded=0;orthogonalLoop=1;jettySize=auto;html=1;entryX=0.033;entryY=0.475;entryDx=0;entryDy=0;entryPerimeter=0;" edge="1" parent="AeBUD6cjxd1LtfXHsOYv-1" source="AeBUD6cjxd1LtfXHsOYv-25" target="AeBUD6cjxd1LtfXHsOYv-35">
          <mxGeometry relative="1" as="geometry" />
        </mxCell>
        <mxCell id="AeBUD6cjxd1LtfXHsOYv-38" value="&lt;font style=&quot;font-size: 7px;&quot;&gt;Yes&lt;/font&gt;" style="text;html=1;align=center;verticalAlign=middle;whiteSpace=wrap;rounded=0;" vertex="1" parent="AeBUD6cjxd1LtfXHsOYv-1">
          <mxGeometry x="280.83" y="120" width="60" height="30" as="geometry" />
        </mxCell>
        <mxCell id="AeBUD6cjxd1LtfXHsOYv-42" value="&lt;font style=&quot;font-size: 7px;&quot;&gt;No&lt;/font&gt;" style="text;html=1;align=center;verticalAlign=middle;whiteSpace=wrap;rounded=0;" vertex="1" parent="AeBUD6cjxd1LtfXHsOYv-1">
          <mxGeometry x="400" y="70" width="60" height="30" as="geometry" />
        </mxCell>
        <mxCell id="AeBUD6cjxd1LtfXHsOYv-45" value="&#xa;Notify Employee of Success&#xa;&#xa;" style="points=[[0.25,0,0],[0.5,0,0],[0.75,0,0],[1,0.25,0],[1,0.5,0],[1,0.75,0],[0.75,1,0],[0.5,1,0],[0.25,1,0],[0,0.75,0],[0,0.5,0],[0,0.25,0]];shape=mxgraph.bpmn.task;whiteSpace=wrap;rectStyle=rounded;size=10;html=1;container=1;expand=0;collapsible=0;taskMarker=abstract;fontSize=7;" vertex="1" parent="AeBUD6cjxd1LtfXHsOYv-1">
          <mxGeometry x="550" y="80" width="80" height="60" as="geometry" />
        </mxCell>
        <mxCell id="AeBUD6cjxd1LtfXHsOYv-2" value="Employee" style="swimlane;startSize=20;horizontal=0;html=1;whiteSpace=wrap;" vertex="1" parent="1">
          <mxGeometry x="140" y="-130" width="650" height="180" as="geometry" />
        </mxCell>
        <mxCell id="AeBUD6cjxd1LtfXHsOYv-4" value="" style="points=[[0.145,0.145,0],[0.5,0,0],[0.855,0.145,0],[1,0.5,0],[0.855,0.855,0],[0.5,1,0],[0.145,0.855,0],[0,0.5,0]];shape=mxgraph.bpmn.event;html=1;verticalLabelPosition=bottom;labelBackgroundColor=#ffffff;verticalAlign=top;align=center;perimeter=ellipsePerimeter;outlineConnect=0;aspect=fixed;outline=standard;symbol=general;" vertex="1" parent="AeBUD6cjxd1LtfXHsOYv-2">
          <mxGeometry x="55" y="60" width="40" height="40" as="geometry" />
        </mxCell>
        <mxCell id="AeBUD6cjxd1LtfXHsOYv-5" value="Start Adding Items to Exhibition" style="text;html=1;align=center;verticalAlign=middle;whiteSpace=wrap;rounded=0;fontSize=9;" vertex="1" parent="AeBUD6cjxd1LtfXHsOYv-2">
          <mxGeometry x="20" y="110" width="110" height="20" as="geometry" />
        </mxCell>
        <mxCell id="AeBUD6cjxd1LtfXHsOYv-10" style="edgeStyle=orthogonalEdgeStyle;rounded=0;orthogonalLoop=1;jettySize=auto;html=1;entryX=0.054;entryY=0.447;entryDx=0;entryDy=0;entryPerimeter=0;" edge="1" parent="AeBUD6cjxd1LtfXHsOYv-2" source="AeBUD6cjxd1LtfXHsOYv-6" target="AeBUD6cjxd1LtfXHsOYv-11">
          <mxGeometry relative="1" as="geometry">
            <mxPoint x="220" y="80" as="targetPoint" />
          </mxGeometry>
        </mxCell>
        <mxCell id="AeBUD6cjxd1LtfXHsOYv-6" value="" style="points=[[0.25,0,0],[0.5,0,0],[0.75,0,0],[1,0.25,0],[1,0.5,0],[1,0.75,0],[0.75,1,0],[0.5,1,0],[0.25,1,0],[0,0.75,0],[0,0.5,0],[0,0.25,0]];shape=mxgraph.bpmn.task;whiteSpace=wrap;rectStyle=rounded;size=10;html=1;container=1;expand=0;collapsible=0;taskMarker=abstract;" vertex="1" parent="AeBUD6cjxd1LtfXHsOYv-2">
          <mxGeometry x="120" y="50" width="70" height="60" as="geometry" />
        </mxCell>
        <mxCell id="AeBUD6cjxd1LtfXHsOYv-7" value="&lt;br&gt;Collect item information&lt;div&gt;&lt;br&gt;&lt;/div&gt;" style="text;html=1;align=center;verticalAlign=middle;whiteSpace=wrap;rounded=0;fontSize=7;" vertex="1" parent="AeBUD6cjxd1LtfXHsOYv-6">
          <mxGeometry x="5" y="15" width="60" height="30" as="geometry" />
        </mxCell>
        <mxCell id="AeBUD6cjxd1LtfXHsOYv-8" style="edgeStyle=orthogonalEdgeStyle;rounded=0;orthogonalLoop=1;jettySize=auto;html=1;entryX=0;entryY=0.5;entryDx=0;entryDy=0;entryPerimeter=0;" edge="1" parent="AeBUD6cjxd1LtfXHsOYv-2" source="AeBUD6cjxd1LtfXHsOYv-4" target="AeBUD6cjxd1LtfXHsOYv-6">
          <mxGeometry relative="1" as="geometry" />
        </mxCell>
        <mxCell id="AeBUD6cjxd1LtfXHsOYv-49" style="edgeStyle=orthogonalEdgeStyle;rounded=0;orthogonalLoop=1;jettySize=auto;html=1;" edge="1" parent="AeBUD6cjxd1LtfXHsOYv-2" source="AeBUD6cjxd1LtfXHsOYv-11" target="AeBUD6cjxd1LtfXHsOYv-30">
          <mxGeometry relative="1" as="geometry" />
        </mxCell>
        <mxCell id="AeBUD6cjxd1LtfXHsOYv-11" value="&lt;font style=&quot;font-size: 7px;&quot;&gt;Verify Completeness&lt;/font&gt;" style="html=1;whiteSpace=wrap;aspect=fixed;shape=isoRectangle;" vertex="1" parent="AeBUD6cjxd1LtfXHsOYv-2">
          <mxGeometry x="253.32999999999998" y="60" width="76.67" height="46" as="geometry" />
        </mxCell>
        <mxCell id="AeBUD6cjxd1LtfXHsOYv-14" value="&lt;font style=&quot;font-size: 7px;&quot;&gt;No&lt;/font&gt;" style="text;html=1;align=center;verticalAlign=middle;whiteSpace=wrap;rounded=0;" vertex="1" parent="AeBUD6cjxd1LtfXHsOYv-2">
          <mxGeometry x="320" y="50" width="60" height="30" as="geometry" />
        </mxCell>
        <mxCell id="AeBUD6cjxd1LtfXHsOYv-18" value="&lt;font style=&quot;font-size: 7px;&quot;&gt;Yes&lt;/font&gt;" style="text;html=1;align=center;verticalAlign=middle;whiteSpace=wrap;rounded=0;" vertex="1" parent="AeBUD6cjxd1LtfXHsOYv-2">
          <mxGeometry x="193.32999999999998" y="140" width="60" height="30" as="geometry" />
        </mxCell>
        <mxCell id="AeBUD6cjxd1LtfXHsOYv-30" value="&#xa;Send Feedback to Employee&#xa;&#xa;" style="points=[[0.25,0,0],[0.5,0,0],[0.75,0,0],[1,0.25,0],[1,0.5,0],[1,0.75,0],[0.75,1,0],[0.5,1,0],[0.25,1,0],[0,0.75,0],[0,0.5,0],[0,0.25,0]];shape=mxgraph.bpmn.task;whiteSpace=wrap;rectStyle=rounded;size=10;html=1;container=1;expand=0;collapsible=0;taskMarker=abstract;fontSize=7;" vertex="1" parent="AeBUD6cjxd1LtfXHsOYv-2">
          <mxGeometry x="380" y="46.5" width="80" height="67" as="geometry" />
        </mxCell>
        <mxCell id="AeBUD6cjxd1LtfXHsOYv-31" style="edgeStyle=orthogonalEdgeStyle;rounded=0;orthogonalLoop=1;jettySize=auto;html=1;entryX=0.5;entryY=1;entryDx=0;entryDy=0;entryPerimeter=0;" edge="1" parent="AeBUD6cjxd1LtfXHsOYv-2" source="AeBUD6cjxd1LtfXHsOYv-30" target="AeBUD6cjxd1LtfXHsOYv-6">
          <mxGeometry relative="1" as="geometry">
            <Array as="points">
              <mxPoint x="420" y="134" />
              <mxPoint x="155" y="134" />
            </Array>
          </mxGeometry>
        </mxCell>
        <mxCell id="AeBUD6cjxd1LtfXHsOYv-47" value="&#xa;Send Feedback for Manual Correction&#xa;&#xa;" style="points=[[0.25,0,0],[0.5,0,0],[0.75,0,0],[1,0.25,0],[1,0.5,0],[1,0.75,0],[0.75,1,0],[0.5,1,0],[0.25,1,0],[0,0.75,0],[0,0.5,0],[0,0.25,0]];shape=mxgraph.bpmn.task;whiteSpace=wrap;rectStyle=rounded;size=10;html=1;container=1;expand=0;collapsible=0;taskMarker=abstract;fontSize=7;" vertex="1" parent="AeBUD6cjxd1LtfXHsOYv-2">
          <mxGeometry x="490" y="50" width="80" height="60" as="geometry" />
        </mxCell>
        <mxCell id="AeBUD6cjxd1LtfXHsOYv-50" style="edgeStyle=orthogonalEdgeStyle;rounded=0;orthogonalLoop=1;jettySize=auto;html=1;entryX=0.488;entryY=0.037;entryDx=0;entryDy=0;entryPerimeter=0;" edge="1" parent="AeBUD6cjxd1LtfXHsOYv-2" source="AeBUD6cjxd1LtfXHsOYv-47" target="AeBUD6cjxd1LtfXHsOYv-11">
          <mxGeometry relative="1" as="geometry">
            <Array as="points">
              <mxPoint x="530" y="20" />
              <mxPoint x="290" y="20" />
              <mxPoint x="290" y="62" />
            </Array>
          </mxGeometry>
        </mxCell>
        <mxCell id="AeBUD6cjxd1LtfXHsOYv-51" value="" style="points=[[0.145,0.145,0],[0.5,0,0],[0.855,0.145,0],[1,0.5,0],[0.855,0.855,0],[0.5,1,0],[0.145,0.855,0],[0,0.5,0]];shape=mxgraph.bpmn.event;html=1;verticalLabelPosition=bottom;labelBackgroundColor=#ffffff;verticalAlign=top;align=center;perimeter=ellipsePerimeter;outlineConnect=0;aspect=fixed;outline=end;symbol=message;" vertex="1" parent="AeBUD6cjxd1LtfXHsOYv-2">
          <mxGeometry x="590" y="66.25" width="33.5" height="33.5" as="geometry" />
        </mxCell>
        <mxCell id="AeBUD6cjxd1LtfXHsOYv-53" value="&#xa;successful completion of the item validation&#xa;&#xa;" style="text;html=1;align=center;verticalAlign=middle;whiteSpace=wrap;rounded=0;fontSize=7;" vertex="1" parent="AeBUD6cjxd1LtfXHsOYv-2">
          <mxGeometry x="576.75" y="30" width="60" height="30" as="geometry" />
        </mxCell>
        <mxCell id="AeBUD6cjxd1LtfXHsOYv-3" value="A" style="swimlane;startSize=0;" vertex="1" parent="1">
          <mxGeometry x="110" y="-130" width="30" height="530" as="geometry" />
        </mxCell>
        <mxCell id="AeBUD6cjxd1LtfXHsOYv-23" value="Adding Items to Exhibition" style="text;html=1;align=center;verticalAlign=middle;resizable=0;points=[];autosize=1;strokeColor=none;fillColor=none;rotation=-90;" vertex="1" parent="1">
          <mxGeometry x="49" y="39" width="160" height="30" as="geometry" />
        </mxCell>
        <mxCell id="AeBUD6cjxd1LtfXHsOYv-29" value="&lt;span style=&quot;font-size: 7px;&quot;&gt;Exhibition Database&lt;/span&gt;" style="swimlane;startSize=20;horizontal=0;html=1;whiteSpace=wrap;" vertex="1" parent="1">
          <mxGeometry x="140" y="230" width="650" height="170" as="geometry" />
        </mxCell>
        <mxCell id="AeBUD6cjxd1LtfXHsOYv-15" value="&lt;br&gt;Store Validated Item in the Database" style="points=[[0.25,0,0],[0.5,0,0],[0.75,0,0],[1,0.25,0],[1,0.5,0],[1,0.75,0],[0.75,1,0],[0.5,1,0],[0.25,1,0],[0,0.75,0],[0,0.5,0],[0,0.25,0]];shape=mxgraph.bpmn.task;whiteSpace=wrap;rectStyle=rounded;size=10;html=1;container=1;expand=0;collapsible=0;taskMarker=abstract;fontSize=7;" vertex="1" parent="AeBUD6cjxd1LtfXHsOYv-29">
          <mxGeometry x="240" y="80" width="65" height="50" as="geometry" />
        </mxCell>
        <mxCell id="AeBUD6cjxd1LtfXHsOYv-22" value="&#xa;Item Successfully Added to Exhibition&#xa;&#xa;" style="text;html=1;align=center;verticalAlign=middle;whiteSpace=wrap;rounded=0;fontSize=7;" vertex="1" parent="AeBUD6cjxd1LtfXHsOYv-29">
          <mxGeometry x="420" y="120" width="90" height="40" as="geometry" />
        </mxCell>
        <mxCell id="AeBUD6cjxd1LtfXHsOYv-33" style="edgeStyle=orthogonalEdgeStyle;rounded=0;orthogonalLoop=1;jettySize=auto;html=1;entryX=0.75;entryY=0;entryDx=0;entryDy=0;entryPerimeter=0;exitX=0.498;exitY=0.974;exitDx=0;exitDy=0;exitPerimeter=0;" edge="1" parent="1" source="AeBUD6cjxd1LtfXHsOYv-11" target="AeBUD6cjxd1LtfXHsOYv-25">
          <mxGeometry relative="1" as="geometry" />
        </mxCell>
        <mxCell id="AeBUD6cjxd1LtfXHsOYv-37" style="edgeStyle=orthogonalEdgeStyle;rounded=0;orthogonalLoop=1;jettySize=auto;html=1;entryX=0.569;entryY=-0.018;entryDx=0;entryDy=0;entryPerimeter=0;" edge="1" parent="1" source="AeBUD6cjxd1LtfXHsOYv-35" target="AeBUD6cjxd1LtfXHsOYv-15">
          <mxGeometry relative="1" as="geometry">
            <mxPoint x="470" y="220" as="sourcePoint" />
            <Array as="points">
              <mxPoint x="465" y="200" />
              <mxPoint x="417" y="200" />
            </Array>
          </mxGeometry>
        </mxCell>
        <mxCell id="AeBUD6cjxd1LtfXHsOYv-46" style="edgeStyle=orthogonalEdgeStyle;rounded=0;orthogonalLoop=1;jettySize=auto;html=1;" edge="1" parent="1" source="AeBUD6cjxd1LtfXHsOYv-15" target="AeBUD6cjxd1LtfXHsOYv-45">
          <mxGeometry relative="1" as="geometry" />
        </mxCell>
        <mxCell id="AeBUD6cjxd1LtfXHsOYv-48" style="edgeStyle=orthogonalEdgeStyle;rounded=0;orthogonalLoop=1;jettySize=auto;html=1;entryX=0.5;entryY=1;entryDx=0;entryDy=0;entryPerimeter=0;" edge="1" parent="1" source="AeBUD6cjxd1LtfXHsOYv-35" target="AeBUD6cjxd1LtfXHsOYv-47">
          <mxGeometry relative="1" as="geometry" />
        </mxCell>
        <mxCell id="AeBUD6cjxd1LtfXHsOYv-54" style="edgeStyle=orthogonalEdgeStyle;rounded=0;orthogonalLoop=1;jettySize=auto;html=1;entryX=0.5;entryY=1;entryDx=0;entryDy=0;entryPerimeter=0;" edge="1" parent="1" source="AeBUD6cjxd1LtfXHsOYv-45" target="AeBUD6cjxd1LtfXHsOYv-51">
          <mxGeometry relative="1" as="geometry">
            <Array as="points">
              <mxPoint x="730" y="30" />
              <mxPoint x="747" y="30" />
            </Array>
          </mxGeometry>
        </mxCell>
      </root>
    </mxGraphModel>
  </diagram>
</mxfile>
